HIERARCHY
ROOT Hips
{
	OFFSET 0.000000 88.474243 0.000000
	CHANNELS 6 Xposition Yposition Zposition Zrotation Yrotation Xrotation 
	JOINT Hips_Spine
	{
		OFFSET 0.000000 0.000000 0.000000
		CHANNELS 3 Zrotation Yrotation Xrotation
		JOINT Spine
		{
			OFFSET 0.005100 8.711998 -0.691000
			CHANNELS 3 Zrotation Yrotation Xrotation
			JOINT Spine1
			{
				OFFSET -0.009200 8.660301 -1.275000
				CHANNELS 3 Zrotation Yrotation Xrotation
				JOINT Spine2
				{
					OFFSET 0.006300 9.852501 -1.857000
					CHANNELS 3 Zrotation Yrotation Xrotation
					JOINT Spine2_Neck
					{
						OFFSET 0.000000 0.000000 0.000000
						CHANNELS 3 Zrotation Yrotation Xrotation
						JOINT Neck
						{
							OFFSET 0.016300 11.420799 -0.263300
							CHANNELS 3 Zrotation Yrotation Xrotation
							End Site #name: Head
							{
								OFFSET -0.019200 9.262405 2.362500
							}
						}
					}
					JOINT Spine2_LeftShoulder
					{
						OFFSET 0.000000 0.000000 0.000000
						CHANNELS 3 Zrotation Yrotation Xrotation
						JOINT LeftShoulder
						{
							OFFSET 5.616900 6.732201 -0.345700
							CHANNELS 3 Zrotation Yrotation Xrotation
							JOINT LeftArm
							{
								OFFSET 10.664888 -0.183372 -2.440700
								CHANNELS 3 Zrotation Yrotation Xrotation
								JOINT LeftForeArm
								{
									OFFSET 27.459126 0.000000 0.000000
									CHANNELS 3 Zrotation Yrotation Xrotation
									End Site #name: LeftHand
									{
										OFFSET 21.306858 0.000000 0.000000
									}
								}
							}
						}
					}
					JOINT Spine2_RightShoulder
					{
						OFFSET 0.000000 0.000000 0.000000
						CHANNELS 3 Zrotation Yrotation Xrotation
						JOINT RightShoulder
						{
							OFFSET -5.580300 6.737503 -0.344400
							CHANNELS 3 Zrotation Yrotation Xrotation
							JOINT RightArm
							{
								OFFSET -10.679335 -0.188484 -2.383900
								CHANNELS 3 Zrotation Yrotation Xrotation
								JOINT RightForeArm
								{
									OFFSET -27.503529 0.000000 0.000000
									CHANNELS 3 Zrotation Yrotation Xrotation
									End Site #name: RightHand
									{
										OFFSET -21.306808 0.000000 0.000000
									}
								}
							}
						}
					}
				}
			}
		}
	}
	JOINT Hips_LeftUpLeg
	{
		OFFSET 0.000000 0.000000 0.000000
		CHANNELS 3 Zrotation Yrotation Xrotation
		JOINT LeftUpLeg
		{
			OFFSET 6.857700 -6.739601 0.312100
			CHANNELS 3 Zrotation Yrotation Xrotation
			JOINT LeftLeg
			{
				OFFSET -0.367590 -34.731552 -4.572400
				CHANNELS 3 Zrotation Yrotation Xrotation
				End Site #name: LeftFoot
				{
					OFFSET 0.367590 -34.656704 -6.067400
				}
			}
		}
	}
	JOINT Hips_RightUpLeg
	{
		OFFSET 0.000000 0.000000 0.000000
		CHANNELS 3 Zrotation Yrotation Xrotation
		JOINT RightUpLeg
		{
			OFFSET -6.876100 -6.733299 0.301000
			CHANNELS 3 Zrotation Yrotation Xrotation
			JOINT RightLeg
			{
				OFFSET 0.347353 -34.795158 -4.515900
				CHANNELS 3 Zrotation Yrotation Xrotation
				End Site #name: RightFoot
				{
					OFFSET -0.347353 -34.589367 -6.070300
				}
			}
		}
	}
}
MOTION
Frames: 14
Frame Time: 0.041667
0.167676 0.053409 -0.005860 0.353415 25.310046 -5.974352 -0.000000 0.000000 0.000000 -1.126101 -1.112151 0.581255 -0.013900 -1.297185 -0.593727 0.000000 0.000000 0.000000 -0.092252 -0.790944 -1.162182 3.329741 0.218994 -4.235282 0.327905 -1.527644 -2.017046 -16.457719 -7.426048 2.300087 -45.780510 -0.419845 10.160897 0.036732 -30.406898 6.180565 -0.100904 -0.948965 -0.135137 14.066241 12.071035 3.964241 57.784281 -5.150222 -6.981651 -0.541711 49.608434 0.661184 0.000000 0.000000 0.000000 -9.344526 18.287029 -4.563347 -0.812060 -1.406801 22.686471 0.000000 0.000000 0.000000 -4.611501 12.826636 -8.972285 5.787796 -0.049591 -1.678326 
0.697589 -0.014866 0.145907 2.152946 28.472049 -6.126394 -0.000000 0.000000 0.000000 -4.023725 -1.900546 0.537886 0.279557 -1.291280 -0.854207 0.000000 0.000000 0.000000 -0.125749 -0.788514 -1.837024 3.880270 -1.368737 -2.323587 -0.379357 -1.274771 -2.551982 -21.374968 -4.008740 0.495686 -42.372917 -0.483306 -0.252033 -0.453480 -24.364989 3.891842 -0.202635 -1.162920 -0.509700 14.720071 8.794752 1.733250 60.482079 -0.635957 -7.793456 -0.457127 50.684191 -0.945607 0.000000 0.000000 -0.000000 -12.000202 16.453876 -1.657018 -0.442496 1.867988 20.333405 0.000000 0.000000 0.000000 -8.539937 13.762421 -8.969617 5.749433 -1.252017 -0.279283 
0.995873 -0.031561 0.176358 3.639816 27.386680 -5.879960 -0.000000 0.000000 -0.000000 -5.668427 -3.206736 1.308628 0.072384 -1.020444 -0.801784 0.000000 0.000000 0.000000 0.281607 -1.209105 -1.795186 3.410191 -2.200112 -2.960690 -0.573168 -1.270161 -2.370748 -24.623340 -3.250160 1.869256 -42.692595 5.561630 -5.561319 -1.019294 -25.907912 3.860746 -0.189418 -1.153444 -0.355069 14.024325 8.033976 2.021778 59.842522 1.142282 -6.360976 -0.119539 44.837811 -0.757771 0.000000 0.000000 -0.000000 -13.772415 16.506559 0.223016 -1.051376 2.384249 18.245703 0.000000 0.000000 0.000000 -10.566482 14.017548 -10.879262 5.074570 -3.756669 3.909252 
1.278901 -0.047258 0.136834 4.401874 26.018208 -5.435489 -0.000000 0.000000 -0.000000 -6.676263 -3.138342 2.301069 0.062238 -0.974784 -0.773598 0.000000 0.000000 0.000000 0.448541 -1.355829 -1.632012 3.103764 -3.510992 -2.558785 -0.537501 -1.356942 -2.228715 -26.025004 -3.149521 3.061497 -41.146428 6.572092 -5.212776 -0.630791 -25.731635 6.029152 -0.149027 -1.162712 -0.230999 13.248515 7.790182 2.012131 59.796357 3.958285 -5.149030 0.053584 45.828430 -0.633529 0.000000 0.000000 -0.000000 -14.844294 16.649637 0.425843 -1.199029 2.996177 17.466556 0.000000 0.000000 0.000000 -12.019010 12.927232 -13.223826 4.287235 -4.511248 9.068586 
1.616047 -0.047081 0.072892 4.736024 25.687220 -4.908678 -0.000000 0.000000 -0.000000 -7.254051 -2.644472 2.274876 -0.050607 -0.935674 -0.625258 0.000000 0.000000 0.000000 0.323662 -1.428611 -1.636179 3.021659 -4.426444 -2.229816 -0.572657 -1.509554 -2.078425 -28.131815 -2.386603 4.010444 -38.518049 6.591864 -5.255737 -0.043799 -22.192756 8.068701 -0.162105 -1.170234 -0.119078 12.090671 7.588122 1.809272 60.583930 5.520993 -5.006873 0.095084 47.057121 -0.702799 0.000000 0.000000 -0.000000 -15.644847 16.919053 0.309797 -1.221062 3.174887 16.953488 0.000000 0.000000 0.000000 -13.223268 11.695138 -14.742325 3.792426 -4.464361 12.707070 
1.991440 -0.033485 0.003833 4.806959 25.590656 -4.644953 -0.000000 0.000000 -0.000000 -7.601099 -2.295844 1.763618 -0.147854 -0.915006 -0.558687 0.000000 0.000000 0.000000 0.133692 -1.467091 -1.615943 2.872277 -5.021345 -1.802099 -0.673533 -1.563269 -1.971239 -30.152223 -1.589203 4.504460 -36.574343 6.367515 -4.642760 0.425416 -17.910389 9.320659 -0.252550 -1.171233 -0.080467 10.694964 7.524805 1.664488 61.723769 5.844393 -5.269953 0.225477 46.840004 -0.687571 0.000000 0.000000 -0.000000 -16.158151 17.119676 0.064025 -1.290823 3.161431 16.803231 0.000000 0.000000 0.000000 -14.132666 10.424225 -15.290926 3.649311 -3.706285 14.669645 
2.381115 -0.011258 -0.064225 4.710490 25.848153 -4.513491 -0.000000 0.000000 -0.000000 -7.697018 -2.102647 1.310106 -0.291324 -0.842773 -0.603963 0.000000 0.000000 0.000000 -0.106285 -1.475084 -1.625940 2.715659 -5.269975 -1.466704 -0.843362 -1.552513 -2.006180 -31.751840 -0.773607 4.722208 -34.956959 6.313240 -3.890489 0.831609 -13.413028 9.912203 -0.422022 -1.163829 -0.143595 9.757204 7.448848 1.540110 62.997192 4.675594 -6.324217 0.401632 45.904468 -0.635678 0.000000 0.000000 -0.000000 -16.501499 17.053082 -0.295679 -1.275732 3.162421 16.984916 0.000000 0.000000 0.000000 -14.737816 9.194554 -15.377697 3.520377 -2.814838 15.934642 
2.759123 0.018313 -0.125825 4.511189 26.456269 -4.429712 -0.000000 0.000000 -0.000000 -7.800500 -1.894424 0.944171 -0.457202 -0.745097 -0.731097 0.000000 0.000000 0.000000 -0.315480 -1.456518 -1.743515 2.481679 -5.351016 -1.179978 -1.030955 -1.524182 -2.143390 -32.951025 -0.089562 4.669245 -33.820323 6.384945 -3.673075 1.002208 -10.377933 9.816957 -0.580363 -1.111142 -0.232024 9.228569 7.342044 1.467238 64.393084 2.934926 -7.001401 0.589320 44.759402 -0.618474 0.000000 0.000000 -0.000000 -16.720843 16.751991 -0.738297 -1.193987 3.186592 17.371381 0.000000 0.000000 0.000000 -15.097064 7.871442 -15.205622 3.526266 -1.755130 16.635928 
3.097368 0.054583 -0.176404 4.242178 27.195687 -4.352656 -0.000000 0.000000 -0.000000 -7.882824 -1.595433 0.612662 -0.582087 -0.628396 -0.912012 0.000000 0.000000 0.000000 -0.461065 -1.406136 -1.903933 2.311772 -5.158379 -0.883342 -1.184891 -1.467554 -2.326569 -33.730556 0.410354 4.546806 -33.331642 6.448094 -3.627805 0.980832 -8.969597 9.412054 -0.752215 -1.024517 -0.345221 8.916258 7.198072 1.423022 66.271387 2.354938 -7.037599 0.715327 43.190321 -0.560791 0.000000 0.000000 -0.000000 -16.832714 16.386544 -1.218841 -1.042408 3.178115 17.831094 0.000000 0.000000 0.000000 -15.245376 6.376349 -14.824063 3.538322 -0.699336 16.829261 
3.390977 0.096711 -0.218679 3.933241 27.790956 -4.291800 -0.000000 0.000000 -0.000000 -8.102543 -1.260524 0.461638 -0.675150 -0.504599 -1.109578 0.000000 0.000000 0.000000 -0.577342 -1.336391 -2.058632 2.257066 -4.900778 -0.696279 -1.295639 -1.381532 -2.483417 -34.061533 0.730119 4.431930 -33.327878 6.574922 -3.766465 0.904612 -8.683635 9.006696 -0.894855 -0.910568 -0.448870 8.523133 7.164414 1.380454 67.557607 2.260791 -6.372380 0.820567 41.610946 -0.515660 0.000000 0.000000 -0.000000 -16.812607 16.056105 -1.686778 -0.877565 3.163007 18.215554 0.000000 0.000000 0.000000 -15.176309 4.911197 -14.239987 3.454093 0.145198 16.449735 
3.635468 0.144440 -0.254233 3.600610 28.205331 -4.255954 -0.000000 0.000000 -0.000000 -8.405279 -0.939145 0.470732 -0.759973 -0.389436 -1.273833 0.000000 0.000000 0.000000 -0.706684 -1.257879 -2.183427 2.320554 -4.620025 -0.633230 -1.391195 -1.288977 -2.609399 -34.033676 0.942530 4.344914 -33.570076 6.529510 -3.954960 0.814882 -9.130160 8.723712 -1.045387 -0.796286 -0.518162 8.225724 7.166330 1.348098 68.401155 2.436385 -5.638291 0.888494 40.364114 -0.482503 0.000000 0.000000 -0.000000 -16.674866 15.792796 -2.130596 -0.734452 3.145365 18.532596 0.000000 0.000000 0.000000 -14.929584 3.597423 -13.577508 3.250742 0.643480 15.636318 
3.825655 0.195615 -0.285402 3.276713 28.339470 -4.227977 -0.000000 0.000000 -0.000000 -8.760570 -0.663754 0.582186 -0.852986 -0.282777 -1.412035 0.000000 0.000000 0.000000 -0.846685 -1.182346 -2.293971 2.430905 -4.379673 -0.660219 -1.482157 -1.200586 -2.709412 -33.776935 1.082853 4.320193 -33.978283 6.285433 -3.958744 0.755432 -9.750587 8.520755 -1.230899 -0.669915 -0.555078 8.029349 7.123594 1.314147 68.631029 2.659651 -5.143403 0.916765 39.800483 -0.469958 0.000000 0.000000 -0.000000 -16.457093 15.619069 -2.507380 -0.626491 3.150002 18.728521 0.000000 0.000000 0.000000 -14.594506 2.451812 -12.970569 2.958266 0.814568 14.664831 
3.956120 0.247737 -0.314636 3.008705 28.214417 -4.200718 -0.000000 0.000000 -0.000000 -9.049749 -0.441380 0.691926 -0.908191 -0.205653 -1.519796 0.000000 0.000000 0.000000 -0.975326 -1.118162 -2.377546 2.602760 -4.159427 -0.756459 -1.565061 -1.116498 -2.790697 -33.415425 1.174067 4.314540 -34.428764 5.812627 -3.715051 0.720863 -10.288579 8.376547 -1.398027 -0.550182 -0.579733 7.941065 7.050162 1.278543 68.383967 2.759684 -4.879261 0.913141 39.702225 -0.477040 0.000000 0.000000 -0.000000 -16.213198 15.537068 -2.805755 -0.575287 3.158253 18.823008 0.000000 0.000000 0.000000 -14.281828 1.524785 -12.525859 2.663461 0.703575 13.722367 
4.032605 0.299791 -0.345420 2.792397 27.817071 -4.185210 -0.000000 0.000000 -0.000000 -9.296596 -0.311141 0.829834 -0.935085 -0.152789 -1.624551 0.000000 0.000000 0.000000 -1.068041 -1.076100 -2.442033 2.815655 -3.997900 -0.915381 -1.626301 -1.059203 -2.857221 -32.990941 1.217579 4.358440 -34.852563 5.236915 -3.258385 0.692090 -10.776964 8.244604 -1.516313 -0.465249 -0.604661 7.932892 6.980170 1.249312 67.849840 2.745714 -5.029951 0.892364 39.918306 -0.493321 0.000000 0.000000 -0.000000 -15.988635 15.574795 -3.023624 -0.576170 3.156275 18.847168 0.000000 0.000000 0.000000 -14.014990 0.899273 -12.260067 2.390256 0.354675 12.948358 
